<?xml version="1.0" encoding="utf-8"?>
<!-- Generator: Adobe Illustrator 24.3.0, SVG Export Plug-In . SVG Version: 6.00 Build 0)  -->
<svg version="1.1" id="Ebene_1" xmlns="http://www.w3.org/2000/svg" xmlns:xlink="http://www.w3.org/1999/xlink" x="0px" y="0px"
	 viewBox="0 0 257.7 238.5" style="enable-background:new 0 0 257.7 238.5;" xml:space="preserve">
<style type="text/css">
	.st0{fill:#FFFFFF;}
</style>
<g>
	<path class="st0" d="M210.4,121.8c-5,4.8-9.7,9.3-14.6,14c-1.2-0.9-2.3-1.9-3.5-2.7c-15.3-10.4-35.9-6.3-46.6,9.3
		c-12.7,18.6-5.3,46.2,18.8,53.5c15.4,4.7,32.3-2.5,38.6-16.1c0.9-1.9,1.4-4,2.2-6.4c-1.3-0.1-2.1-0.2-3-0.2c-8.7,0-17.4,0-26.1,0
		c-1.7,0-2.3-0.4-2.3-2.1c0.1-4.7,0.1-9.5,0-14.2c0-1.7,0.4-2.4,2.3-2.4c15.7,0.1,31.4,0,47.2,0c1.3,0,2.2,0.1,2.3,1.7
		c2,19-2.3,35.8-17.1,48.8c-8.3,7.3-18.3,10.8-29.4,11.8c-11.4,1-22-1.1-32-6.5c-14.4-7.8-23.3-19.9-26.9-35.8
		c-4.4-19.2,0.6-36.2,13.9-50.5c7.7-8.4,17.7-13.6,28.9-15.6c16.6-3,31.8,0.2,45,11.3C208.8,120.3,209.4,120.9,210.4,121.8z"/>
</g>
<path class="st0" d="M210.4,121.8c-5,4.8-9.7,9.3-14.6,14c-1.2-0.9-2.3-1.9-3.5-2.7c-15.3-10.4-35.9-6.3-46.6,9.3
	c-12.7,18.6-5.3,46.2,18.8,53.5c15.4,4.7,32.3-2.5,38.6-16.1c0.9-1.9,1.4-4,2.2-6.4c-1.3-0.1-2.1-0.2-3-0.2c-8.7,0-17.4,0-26.1,0
	c-1.7,0-2.3-0.4-2.3-2.1c0.1-4.7,0.1-9.5,0-14.2c0-1.7,0.4-2.4,2.3-2.4c15.7,0.1,31.4,0,47.2,0c1.3,0,2.2,0.1,2.3,1.7
	c2,19-2.3,35.8-17.1,48.8c-8.3,7.3-18.3,10.8-29.4,11.8c-11.4,1-22-1.1-32-6.5c-14.4-7.8-23.3-19.9-26.9-35.8
	c-4.4-19.2,0.6-36.2,13.9-50.5c7.7-8.4,17.7-13.6,28.9-15.6c16.6-3,31.8,0.2,45,11.3C208.8,120.3,209.4,120.9,210.4,121.8z"/>
<path class="st0" d="M139.4,15.1c2.2,0.8,4.6,1.3,6.6,2.4c4.9,2.7,7.1,7.3,8.1,12.5c0.1,0.4,0.1,0.8,0.2,1.3c0,0.1,0.1,0.2,0.2,0.5
	c6.3,0,12.6,0,18.9,0c0,8.1,0,16.1,0,24.1c-24.1,0-48.2,0-72.4,0c0-8,0-15.9,0-24.1c0.5,0,0.9-0.1,1.4-0.1c5.4,0,10.9,0,16.3,0
	c1,0,1.5-0.2,1.6-1.3c1-7,4.7-12,11.4-14.5c1-0.4,2-0.6,3-0.8C136.3,15.1,137.9,15.1,139.4,15.1z M130.2,31.6c4.8,0,9.5,0,14.2,0
	c-0.2-4-3.2-6.9-7-6.9C133.4,24.7,130.5,27.5,130.2,31.6z"/>
<path class="st0" d="M79,66.9c17.2,0,34.2,0,51.8,0c-0.5,1.7-0.6,3.3-1.4,4.4c-2.1,2.5-4.5,4.6-7.1,7.2c-0.2-1.4-0.4-2.4-0.5-3.4
	c-11.4,0-22.8,0-34.5,0c0,11.6,0,23.1,0,34.6c11.4,0,22.9,0,34.6,0c0-3.7,0.1-7.2,0-10.8c0-1.4,0.4-2.4,1.5-3.3
	c2.2-1.8,4.3-3.7,6.9-6c0,9.7,0,18.8,0,28.1c-17,0-34,0-51.2,0C79,100.7,79,83.8,79,66.9z"/>
<path class="st0" d="M90.9,89.4c2.8-2.3,5.4-4.4,8.2-6.7c3.1,3.3,6,6.6,9.1,9.9c9.5-8.4,18.8-16.7,28-24.9c2.5,2.3,5,4.5,7.9,7.1
	c-1.3,1-2.1,1.7-3,2.5c-10.8,9.4-21.5,18.8-32.3,28.3c-1.2,1.1-2,1.1-3.2-0.1C100.8,100,95.8,94.7,90.9,89.4z"/>
<g>
	<path class="st0" d="M199.9,45.8c0.5,0,1.1,0.1,1.6,0.3c2.3,1.2,3.4,3.1,3.4,5.7c0.1,4.7,0.4,9.5,0.4,14.2c0,13.2,0,26.3,0,39.5
		c3.2,1.9,6.3,4.1,9.3,6.6c0.1,0,0.1,0.1,0.2,0.1c0-20.5,0-40.9,0-61.4c0-1.8-0.3-3.4-1.1-4.9c-2.9-5.9-7.3-9.5-14.1-9.7
		C193.3,36,187,36,180.8,36c-0.2,0-0.3,0.1-0.5,0.1c0,3.1,0,6.2,0,9.3c0.6,0,1.1,0.1,1.7,0.1C188,45.6,193.9,45.7,199.9,45.8z"/>
	<path class="st0" d="M118.9,197.3c-14.1,0-28.2,0-42.2,0c-2.8,0-4.6-1.3-6.3-3.1c-0.7-0.7-0.9-1.6-0.9-2.6c0-11.8,0-23.6-0.1-35.4
		c0-31.3,0-62.6,0-94c0-3.8,0.2-7.7,0.5-11.5c0.1-1.1,0.6-2.4,1.3-3.2c1.2-1.4,2.9-1.9,5-1.9c5.6,0.1,11.3-0.1,16.9-0.2
		c0.4,0,1.2-0.4,1.2-0.7c0.1-2.9,0.1-5.8,0.1-8.7c-0.3-0.1-0.4-0.1-0.5-0.1c-6.3,0-12.6,0-18.9,0.1c-5.2,0.1-9.3,2.4-12.2,6.7
		c-1.8,2.7-2.9,5.5-2.9,9c0.1,36.4,0,72.8,0,109.2c0,10.2,0.1,20.3,0.2,30.5c0,5.4,2.5,9.5,6.7,12.6c1.5,1,3.1,1.8,4.7,2.6
		c18.2,0,36.4,0,54.6,0C123.4,203.8,121,200.7,118.9,197.3z"/>
</g>
<path class="st0" d="M108.8,158.5c-0.2,0.2-0.4,0.4-0.6,0.6c-3.1-3.4-6.1-6.6-9.1-9.9c-2.7,2.2-5.4,4.4-8.2,6.7
	c5,5.4,10,10.6,14.8,16c1.2,1.3,1.9,1.2,3.2,0.1c0.2-0.2,0.5-0.4,0.7-0.6C108.9,167,108.6,162.7,108.8,158.5z"/>
<path class="st0" d="M110.5,176.7c0-0.2-0.1-0.4-0.1-0.7c-7.8,0-15.5,0-23.2,0c0-11.5,0-23,0-34.6c8.4,0,16.6,0,24.9,0
	c0.9-2.8,2.1-5.5,3.4-8.1c-12.2,0-24.3,0-36.5,0c0,17,0,33.8,0,50.6c11.2,0,22.4,0,33.6,0C111.8,181.7,111.1,179.2,110.5,176.7z"/>
</svg>
