<?xml version="1.0" encoding="utf-8"?>
<!-- Generator: Adobe Illustrator 24.2.1, SVG Export Plug-In . SVG Version: 6.00 Build 0)  -->
<svg version="1.1" id="Ebene_1" xmlns="http://www.w3.org/2000/svg" xmlns:xlink="http://www.w3.org/1999/xlink" x="0px" y="0px"
	 viewBox="0 0 257.7 238.5" style="enable-background:new 0 0 257.7 238.5;" xml:space="preserve">
<style type="text/css">
	.st0{fill:#FFFFFF;}
</style>
<path class="st0" d="M112.7,183.8c-2.3,0-4.6,0-6.9,0c-1.8,0-2.5-0.6-2.5-2.4c0.1-7.5,0.1-15,0-22.5c0-1.7,0.7-2.3,2.3-2.3
	c1.2,0,2.4,0,3.6,0c0.2-1.9,0.4-3.8,0.8-5.6c-1.3,0-2.6,0-3.8,0c-2.2,0-3-0.8-2.9-3c0.1-4.1,0-8.2,0-12.3c0-4.2,0.1-8.4,0-12.6
	c0-1.9,0.6-2.6,2.6-2.6c6.2,0.1,12.5,0.1,18.8,0c1.8-2.1,3.7-4,5.7-5.8c-4.6,0-9.1,0-13.6,0c-3.6,0-7.2-0.1-10.8,0
	c-1.8,0-2.7-0.4-2.7-2.5c0.1-7.4,0-14.8,0.1-22.2c0-0.8,1.1-2.4,1.6-2.4c9.4-0.2,18.7-0.1,28.3-0.1c0,8.4,0,16.4,0,24.6
	c2-1.5,4-3,6.1-4.3c0-6.7,0-13.3,0-20.1c9.8,0,19.8,0,30.2,0c0,3.7,0,7.3,0,10.9c1,0,1.9-0.1,2.9-0.1c1,0,1.9,0,2.9,0.1
	c0-3.7,0-7.4,0-11.2c3.6,0,7.1,0,10.5,0c4.6,0,9.2,0.1,13.8,0c2.1-0.1,3.1,0.5,3,2.8c-0.1,5.3,0,10.6-0.1,15.9
	c4.2,2.3,8.1,5,11.6,8.1c0-16.1,0-32.3,0-48.4c0-0.9,0-1.8-0.1-2.7c-0.7-7-5.5-11.5-12.5-11.6c-3.1-0.1-6.2-0.1-9.3,0
	c-1.7,0-2.4-0.6-2.3-2.3c0.1-2.3,0-4.6,0-6.9c0-7-4.7-13-11.6-14.3c-3-0.5-6.2-0.4-9.3-0.4c-7.6,0-13.8,5.7-14.4,13.3
	c-0.2,2.5-0.3,5-0.2,7.5c0.1,2.3-0.6,3.2-3,3.1c-8.2-0.1-16.4,0-24.6-0.1c-2.8,0-6.7,0.9-8-0.6c-1.5-1.7-0.7-5.4-0.8-8.3
	c-0.1-7-4.3-12.9-11.2-14.4c-3.2-0.7-6.5-0.6-9.8-0.6c-6.5,0-12.4,4.4-13.8,10.7c-0.8,3.5-0.6,7.1-0.6,10.7c0,1.8-0.6,2.5-2.4,2.4
	c-3-0.1-6,0-9,0c-7.7,0.1-12.7,5.1-12.7,12.9c0,39,0.2,78-0.1,117c-0.1,8.1,5.3,14.2,14,14.1c15.3-0.2,30.6-0.2,45.8-0.1
	C116.1,191.9,114.2,188,112.7,183.8z M170.3,39.7c8.4-0.2,8.5-0.1,8.5,8.3c0,6.7,0,13.4,0,20c0,3.8-1,4.8-4.8,4.8
	c-7.8,0.1-7.8,0.1-7.8-7.6c0-3,0-6,0-9c0-4.2,0-8.4,0-12.6C166.2,40.9,167.5,39.8,170.3,39.7z M94.7,183.8c-7.3-0.1-14.6-0.1-21.9,0
	c-1.9,0-2.7-0.5-2.6-2.5c0.1-7.4,0.1-14.8,0-22.2c0-1.9,0.7-2.4,2.4-2.4c7.5,0.1,15,0.1,22.5,0c1.9,0,2.4,0.8,2.4,2.5
	c-0.1,3.7,0,7.4,0,11.1c0,3.6-0.1,7.2,0,10.8C97.6,183.2,96.8,183.9,94.7,183.8z M94.7,151.1c-7.2-0.1-14.4-0.1-21.6,0
	c-2.1,0-3-0.6-2.9-2.9c0.2-4.2,0-8.4,0-12.6c0-4,0.1-8,0-12c-0.1-2.1,0.5-3,2.8-3c7.3,0.1,14.6,0.1,21.9,0c1.9,0,2.7,0.5,2.7,2.5
	c-0.1,8.4-0.1,16.8,0,25.2C97.6,150.4,96.7,151.1,94.7,151.1z M94.9,114.9c-7.4-0.1-14.8-0.1-22.2,0c-2,0-2.6-0.7-2.5-2.6
	c0.1-3.7,0-7.4,0-11.1c0-3.6,0.1-7.2,0-10.8c-0.1-1.8,0.4-2.7,2.5-2.7c7.5,0.1,15,0.1,22.5,0c1.8,0,2.4,0.7,2.4,2.5
	c-0.1,7.4-0.1,14.8,0,22.2C97.6,114.3,96.8,114.9,94.9,114.9z M94.3,65.2c0-2.9,0-5.8,0-8.7c0-4.3,0-8.6,0-12.9c0-2.7,1.2-3.9,4-4
	c8.3-0.1,8.3-0.2,8.3,8.1c0,6.9,0,13.8,0,20.6c0,3.6-0.9,4.4-4.4,4.4C94.3,72.9,94.3,72.9,94.3,65.2z"/>
<g>
	<path class="st0" d="M210.4,121.8c-5,4.8-9.7,9.3-14.6,14c-1.2-0.9-2.3-1.9-3.5-2.7c-15.3-10.4-35.9-6.3-46.6,9.3
		c-12.7,18.6-5.3,46.2,18.8,53.5c15.4,4.7,32.3-2.5,38.6-16.1c0.9-1.9,1.4-4,2.2-6.4c-1.3-0.1-2.1-0.2-3-0.2c-8.7,0-17.4,0-26.1,0
		c-1.7,0-2.3-0.4-2.3-2.1c0.1-4.7,0.1-9.5,0-14.2c0-1.7,0.4-2.4,2.3-2.4c15.7,0.1,31.4,0,47.2,0c1.3,0,2.2,0.1,2.3,1.7
		c2,19-2.3,35.8-17.1,48.8c-8.3,7.3-18.3,10.8-29.4,11.8c-11.4,1-22-1.1-32-6.5c-14.4-7.8-23.3-19.9-26.9-35.8
		c-4.4-19.2,0.6-36.2,13.9-50.5c7.7-8.4,17.7-13.6,28.9-15.6c16.6-3,31.8,0.2,45,11.3C208.8,120.3,209.4,120.9,210.4,121.8z"/>
</g>
</svg>
